<svg id="drive-form" xmlns="http://www.w3.org/2000/svg" viewBox="0 0 27.728 28.8">
  <defs>
    <style>
      .cls-1 {
        fill: #4cd5b0;
      }
    </style>
  </defs>
  <path id="Path_1058" data-name="Path 1058" class="cls-1" d="M24.647,0H3.081A3.151,3.151,0,0,0,0,3.2V25.6a3.151,3.151,0,0,0,3.081,3.2H24.647a3.151,3.151,0,0,0,3.081-3.2V3.2A3.151,3.151,0,0,0,24.647,0ZM9.243,22.4H6.162V19.2H9.243Zm0-6.4H6.162V12.8H9.243Zm0-6.4H6.162V6.4H9.243ZM21.566,22.4H10.783V19.2H21.566Zm0-6.4H10.783V12.8H21.566Zm0-6.4H10.783V6.4H21.566Z"/>
</svg>
