<?xml version="1.0" encoding="UTF-8" standalone="no"?>
<svg
   xmlns:dc="http://purl.org/dc/elements/1.1/"
   xmlns:cc="http://creativecommons.org/ns#"
   xmlns:rdf="http://www.w3.org/1999/02/22-rdf-syntax-ns#"
   xmlns:svg="http://www.w3.org/2000/svg"
   xmlns="http://www.w3.org/2000/svg"
   xmlns:sodipodi="http://sodipodi.sourceforge.net/DTD/sodipodi-0.dtd"
   xmlns:inkscape="http://www.inkscape.org/namespaces/inkscape"
   viewBox="0 0 30.841 30.841"
   version="1.1"
   id="svg7"
   sodipodi:docname="message (copy).svg"
   inkscape:version="0.92.3 (2405546, 2018-03-11)">
  <defs
     id="defs8" />
  <metadata
     id="metadata11">
    <rdf:RDF>
      <cc:Work
         rdf:about="">
        <dc:format>image/svg+xml</dc:format>
        <dc:type
           rdf:resource="http://purl.org/dc/dcmitype/StillImage" />
      </cc:Work>
    </rdf:RDF>
  </metadata>
  <sodipodi:namedview
     pagecolor="#ffffff"
     bordercolor="#666666"
     borderopacity="1"
     objecttolerance="10"
     gridtolerance="10"
     guidetolerance="10"
     inkscape:pageopacity="0"
     inkscape:pageshadow="2"
     inkscape:window-width="1687"
     inkscape:window-height="964"
     id="namedview9"
     showgrid="false"
     inkscape:zoom="9.6375"
     inkscape:cx="1.306822"
     inkscape:cy="22.608021"
     inkscape:window-x="2260"
     inkscape:window-y="110"
     inkscape:window-maximized="0"
     inkscape:current-layer="svg7" />
  <g
     transform="matrix(0.3,0,0,0.3,0.5221268,-0.02253332)"
     id="g6">
    <g
       id="g4">
      <path
         inkscape:connector-curvature="0"
         style="fill:#030104"
         d="m 50,40 c -8.285,0 -15,6.718 -15,15 0,8.285 6.715,15 15,15 8.283,0 15,-6.715 15,-15 C 65,46.718 58.283,40 50,40 Z M 90,25 H 78 c -1.65,0 -3.428,-1.28 -3.949,-2.846 L 70.949,12.845 C 70.426,11.28 68.65,10 67,10 H 33 c -1.65,0 -3.428,1.28 -3.949,2.846 l -3.102,9.309 C 25.426,23.72 23.65,25 22,25 H 10 C 4.5,25 0,29.5 0,35 v 45 c 0,5.5 4.5,10 10,10 h 80 c 5.5,0 10,-4.5 10,-10 V 35 C 100,29.5 95.5,25 90,25 Z M 50,80 C 36.193,80 25,68.807 25,55 25,41.194 36.193,30 50,30 63.805,30 75,41.194 75,55 75,68.807 63.805,80 50,80 Z M 86.5,41.993 c -1.932,0 -3.5,-1.566 -3.5,-3.5 0,-1.932 1.568,-3.5 3.5,-3.5 1.934,0 3.5,1.568 3.5,3.5 0,1.934 -1.567,3.5 -3.5,3.5 z"
         id="path2" />
    </g>
  </g>
</svg>
