<svg id="heart_1_" data-name="heart (1)" xmlns="http://www.w3.org/2000/svg" viewBox="0 0 28.505 35.562">
  <defs>
    <style>
      .cls-1 {
        fill: #3acfd5;
      }
    </style>
  </defs>
  <path id="Path_1092" data-name="Path 1092" class="cls-1" d="M34.263,15.547l-.208-.049.146-.156a1.46,1.46,0,0,0-.071-2.058l-.476-.444a1.5,1.5,0,0,0-2.058.071l-1.448,1.552a11.906,11.906,0,0,0-3.615-3.346,4.393,4.393,0,0,0,1.431-.451h3.27a2.375,2.375,0,1,0,0-4.751H27.669A3.823,3.823,0,0,0,26.028,5.6a.3.3,0,0,1-.275-.205,8.48,8.48,0,0,0-.329-.818l.547-.547a2.377,2.377,0,0,0,0-3.359,2.432,2.432,0,0,0-3.359,0l-.641.641a4.335,4.335,0,0,0-3.58.544.252.252,0,0,1-.315-.08A3.388,3.388,0,0,0,16.963.723a2.54,2.54,0,0,0-2.256.327c-.471.321-.48,1.014-.35,1.958a3.945,3.945,0,0,0,.1.468l1.319.943c2.182,1.445,3.026,3.314,2.359,5.253-.845,2.457-5.077,5.7-8.545,6.539l-.957.256a13.645,13.645,0,0,0,3.6,12.847c3.919,4.2,9,6.247,15.538,6.247h0c.749,0,1.53-.027,2.321-.082a3.512,3.512,0,0,0,3.5-3.7,34.066,34.066,0,0,0-.312-5.058c-.094-.71-.174-1.428-.254-2.146a38.437,38.437,0,0,0-.968-5.876l1.387.322A1.455,1.455,0,0,0,35.2,17.929l.148-.634A1.458,1.458,0,0,0,34.263,15.547ZM27.075,7.1h2.112a2.3,2.3,0,0,0,0,2.375H27.075a1.188,1.188,0,1,1,0-2.375Zm2.7,20.091-1.517,1.011v1.464a.594.594,0,1,1-1.188,0V28.248A22.849,22.849,0,0,1,24.105,26.4v2.086a.594.594,0,0,1-1.188,0V25.431A11.539,11.539,0,0,1,19.631,20.8a5.683,5.683,0,0,0,.08,7.683h1.425a.594.594,0,1,1,0,1.188H19.955l-.007,1.191a.594.594,0,0,1-.594.59h0a.594.594,0,0,1-.59-.6l.01-1.637a6.834,6.834,0,0,1,.255-9.491.57.57,0,0,1,.257-.127,10.291,10.291,0,0,1,1.363-7.487.594.594,0,0,1,.981.67,9.382,9.382,0,0,0-1.156,2.877,4.6,4.6,0,0,1,4,.388,9.45,9.45,0,0,1,1.808,1.3l1.627-1.22a.593.593,0,0,1,.712.95l-1.484,1.113a15.348,15.348,0,0,1,1.315,1.635.594.594,0,1,1-.974.68,14.457,14.457,0,0,0-.995-1.266v1.52a.594.594,0,0,1-1.188,0V18.386a.591.591,0,0,1,.066-.269A8.02,8.02,0,0,0,23.911,17.1a3.261,3.261,0,0,0-3.622,0c-.007,0-.015.005-.023.01a8.082,8.082,0,0,0,.23,2.5,9.819,9.819,0,0,0,2.979,4.729c.013,0,.024-.007.037-.007h3.563a.594.594,0,1,1,0,1.188H24.912A21.932,21.932,0,0,0,27.635,27.2l1.486-.991a.593.593,0,1,1,.659.987Z" transform="translate(-6.884 0.001)"/>
  <path id="Path_1093" data-name="Path 1093" class="cls-1" d="M9.226,9.845a16.6,16.6,0,0,1-.707,5.405c-.188.493-.346.98-.489,1.464l.323-.087c3.315-.806,7.071-3.9,7.716-5.775.608-1.767-.7-3.09-1.909-3.889l-.4-.289A3,3,0,0,1,12.1,7.1c-.139-.009-.277-.012-.393-.012L8.887,4.271a1.492,1.492,0,0,0-2.059,0l-.461.461a1.457,1.457,0,0,0,0,2.059L9.234,9.657C9.231,9.719,9.228,9.78,9.226,9.845Z" transform="translate(-5.941 -1.567)"/>
</svg>
