<svg id="height" xmlns="http://www.w3.org/2000/svg" viewBox="0 0 25.545 31.931">
  <defs>
    <style>
      .cls-1 {
        fill: #3acfd5;
      }
    </style>
  </defs>
  <path id="Path_1079" data-name="Path 1079" class="cls-1" d="M10,30.335V27.141h6.386V23.948H10V20.755h3.193V17.562H10V14.369h6.386V11.176H10V7.983h3.193V4.79H10V1.6A1.6,1.6,0,0,1,11.6,0h9.579a1.6,1.6,0,0,1,1.6,1.6V30.335a1.6,1.6,0,0,1-1.6,1.6H11.6A1.6,1.6,0,0,1,10,30.335Z" transform="translate(2.772)"/>
  <path id="Path_1080" data-name="Path 1080" class="cls-1" d="M2,26.131l4.79,5.451,4.79-5.451H8.386V.586H5.193V26.131Z" transform="translate(-2 -0.586)"/>
</svg>
