<svg xmlns="http://www.w3.org/2000/svg" viewBox="0 0 30.841 30.841">
  <defs>
    <style>
      .cls-1 {
        fill: #3acfd5;
      }
    </style>
  </defs>
  <path id="Path_1095" data-name="Path 1095" class="cls-1" d="M15.42,0a15.42,15.42,0,1,0,15.421,15.42A15.438,15.438,0,0,0,15.42,0ZM8.471,20.257,6.582,17.49H6.1v2.767H4.178V10.476H6.1v5.562h.435l1.586-2.548h2.136L8.067,16.551l2.522,3.706H8.471Zm4.356-1.819a1.1,1.1,0,0,0,1.05.558,1.1,1.1,0,0,0,.8-.282.949.949,0,0,0,.3-.759H16.65l.019.034a2.126,2.126,0,0,1-.781,1.733,2.945,2.945,0,0,1-2,.7,2.938,2.938,0,0,1-2.359-.967,3.687,3.687,0,0,1-.83-2.484v-.19a3.71,3.71,0,0,1,.827-2.484,2.917,2.917,0,0,1,2.355-.973,2.873,2.873,0,0,1,2.039.721,2.461,2.461,0,0,1,.749,1.927l-.012.069H14.975a1.367,1.367,0,0,0-.291-.913,1,1,0,0,0-.8-.366,1.1,1.1,0,0,0-1.054.56,3.079,3.079,0,0,0-.321,1.456v.189A3.1,3.1,0,0,0,12.828,18.438Zm8.9,1.819a2.176,2.176,0,0,1-.174-.479,3.321,3.321,0,0,1-.1-.524,2.555,2.555,0,0,1-.749.832,1.871,1.871,0,0,1-1.109.33,2.309,2.309,0,0,1-1.656-.552,1.98,1.98,0,0,1-.581-1.507,1.794,1.794,0,0,1,.774-1.553,3.869,3.869,0,0,1,2.26-.548h1.075V15.7a1.074,1.074,0,0,0-.282-.765,1.036,1.036,0,0,0-.776-.272,1.018,1.018,0,0,0-.7.218.771.771,0,0,0-.246.6l-1.784-.006-.007-.038a1.736,1.736,0,0,1,.752-1.495,3.277,3.277,0,0,1,2.092-.629,3.056,3.056,0,0,1,1.991.623,2.156,2.156,0,0,1,.765,1.773v2.825a5.175,5.175,0,0,0,.072.889,3.817,3.817,0,0,0,.23.826H21.731Zm3,0V10.476h1.918v9.781Z" transform="translate(0 -0.002)"/>
</svg>
