<svg xmlns="http://www.w3.org/2000/svg" viewBox="0 0 32.531 32.179">
  <defs>
    <style>
      .cls-1 {
        fill: #4cd5b0;
      }
    </style>
  </defs>
  <g id="notifications-on" transform="translate(0 0)">
    <path id="Path_1066" data-name="Path 1066" class="cls-1" d="M8.675,15.324,6.506,13.072A17.151,17.151,0,0,0,0,25.622H3.1A13.417,13.417,0,0,1,8.675,15.324Zm20.758,10.3h3.1a17,17,0,0,0-6.351-12.55l-2.169,2.253A13.747,13.747,0,0,1,29.433,25.622Zm-3.1.8A10.278,10.278,0,0,0,18.589,16.29V15.163a2.43,2.43,0,0,0-2.324-2.413,2.43,2.43,0,0,0-2.324,2.413V16.29A10.278,10.278,0,0,0,6.2,26.426v8.849L3.1,38.493V40.1H29.433V38.493l-3.1-3.218Zm-10.069,18.5h.62A2.727,2.727,0,0,0,19.054,43a3.125,3.125,0,0,0,.31-1.287h-6.2A3.169,3.169,0,0,0,16.265,44.929Z" transform="translate(0 -12.75)"/>
  </g>
</svg>
