<svg id="Group_1569" data-name="Group 1569" xmlns="http://www.w3.org/2000/svg" viewBox="0 0 30.969 30.968">
  <defs>
    <style>
      .cls-1 {
        fill: #3acfd5;
      }
    </style>
  </defs>
  <path id="Path_1099" data-name="Path 1099" class="cls-1" d="M15.484,0A15.485,15.485,0,0,0,0,15.484c0,.319.014.633.032.947L8.474,16.4l2.9-11.364a1.147,1.147,0,0,1,2.255.188l1.165,13.932L16.751,9.9a1.147,1.147,0,0,1,2.2-.153l2.406,6.66,9.573.116c.024-.341.039-.686.039-1.034A15.485,15.485,0,0,0,15.484,0Z"/>
  <path id="Path_1100" data-name="Path 1100" class="cls-1" d="M23.351,155.833,22.04,152.21,19.3,165.157a1.149,1.149,0,0,1-1.122.909l-.072,0a1.146,1.146,0,0,1-1.071-1.049l-1.247-14.9-1.43,5.612a1.148,1.148,0,0,1-1.108.864l-9.027.038a15.484,15.484,0,0,0,30.264.085l-10.071-.123A1.146,1.146,0,0,1,23.351,155.833Z" transform="translate(-3.879 -137.904)"/>
</svg>
